HIERARCHY
ROOT Hips
{
	OFFSET 0.00000 0.00000 0.00000
	CHANNELS 6 Xposition Yposition Zposition Zrotation Yrotation Xrotation 
	JOINT LHipJoint
	{
		OFFSET 0 0 0
		CHANNELS 3 Zrotation Yrotation Xrotation
		JOINT LeftUpLeg
		{
			OFFSET 1.62329 -1.80800 0.67318
			CHANNELS 3 Zrotation Yrotation Xrotation
			JOINT LeftLeg
			{
				OFFSET 2.57139 -7.06484 0.00000
				CHANNELS 3 Zrotation Yrotation Xrotation
				JOINT LeftFoot
				{
					OFFSET 2.52017 -6.92413 0.00000
					CHANNELS 3 Zrotation Yrotation Xrotation
					JOINT LeftToeBase
					{
						OFFSET 0.23295 -0.64001 2.10214
						CHANNELS 3 Zrotation Yrotation Xrotation
						End Site
						{
							OFFSET 0.00000 -0.00000 1.10139
						}
					}
				}
			}
		}
	}
	JOINT RHipJoint
	{
		OFFSET 0 0 0
		CHANNELS 3 Zrotation Yrotation Xrotation
		JOINT RightUpLeg
		{
			OFFSET -1.48061 -1.80800 0.67318
			CHANNELS 3 Zrotation Yrotation Xrotation
			JOINT RightLeg
			{
				OFFSET -2.63258 -7.23296 0.00000
				CHANNELS 3 Zrotation Yrotation Xrotation
				JOINT RightFoot
				{
					OFFSET -2.54779 -7.00000 0.00000
					CHANNELS 3 Zrotation Yrotation Xrotation
					JOINT RightToeBase
					{
						OFFSET -0.23067 -0.63376 2.12161
						CHANNELS 3 Zrotation Yrotation Xrotation
						End Site
						{
							OFFSET -0.00000 -0.00000 1.11000
						}
					}
				}
			}
		}
	}
	JOINT LowerBack
	{
		OFFSET 0 0 0
		CHANNELS 3 Zrotation Yrotation Xrotation
		JOINT Spine
		{
			OFFSET -0.02108 2.07573 -0.16981
			CHANNELS 3 Zrotation Yrotation Xrotation
			JOINT Spine1
			{
				OFFSET 0.05070 2.08439 -0.03141
				CHANNELS 3 Zrotation Yrotation Xrotation
				JOINT Neck
				{
					OFFSET 0 0 0
					CHANNELS 3 Zrotation Yrotation Xrotation
					JOINT Neck1
					{
						OFFSET -0.10731 1.60408 0.31370
						CHANNELS 3 Zrotation Yrotation Xrotation
						JOINT Head
						{
							OFFSET 0.08411 1.65679 -0.30822
							CHANNELS 3 Zrotation Yrotation Xrotation
							End Site
							{
								OFFSET 0.03911 1.69149 -0.14146
							}
						}
					}
				}
				JOINT LeftShoulder
				{
					OFFSET 0 0 0
					CHANNELS 3 Zrotation Yrotation Xrotation
					JOINT LeftArm
					{
						OFFSET 3.52315 0.73219 -0.54694
						CHANNELS 3 Zrotation Yrotation Xrotation
						JOINT LeftForeArm
						{
							OFFSET 5.32462 -0.00000 -0.00000
							CHANNELS 3 Zrotation Yrotation Xrotation
							JOINT LeftHand
							{
								OFFSET 3.48402 -0.00000 -0.00000
								CHANNELS 3 Zrotation Yrotation Xrotation
								JOINT LeftFingerBase
								{
									OFFSET 0 0 0
									CHANNELS 3 Zrotation Yrotation Xrotation
									JOINT LeftHandIndex1
									{
										OFFSET 0.57248 -0.00000 -0.00000
										CHANNELS 3 Zrotation Yrotation Xrotation
										End Site
										{
											OFFSET 0.46154 -0.00000 -0.00000
										}
									}
								}
								JOINT LThumb
								{
									OFFSET 0 0 0
									CHANNELS 3 Zrotation Yrotation Xrotation
									End Site
									{
										OFFSET 0.46859 -0.00000 0.46859
									}
								}
							}
						}
					}
				}
				JOINT RightShoulder
				{
					OFFSET 0 0 0
					CHANNELS 3 Zrotation Yrotation Xrotation
					JOINT RightArm
					{
						OFFSET -3.41766 0.93592 -0.10019
						CHANNELS 3 Zrotation Yrotation Xrotation
						JOINT RightForeArm
						{
							OFFSET -5.33589 -0.00000 -0.00000
							CHANNELS 3 Zrotation Yrotation Xrotation
							JOINT RightHand
							{
								OFFSET -3.64134 -0.00000 -0.00000
								CHANNELS 3 Zrotation Yrotation Xrotation
								JOINT RightFingerBase
								{
									OFFSET 0 0 0
									CHANNELS 3 Zrotation Yrotation Xrotation
									JOINT RightHandIndex1
									{
										OFFSET -0.73481 -0.00000 -0.00000
										CHANNELS 3 Zrotation Yrotation Xrotation
										End Site
										{
											OFFSET -0.59242 -0.00000 -0.00000
										}
									}
								}
								JOINT RThumb
								{
									OFFSET 0 0 0
									CHANNELS 3 Zrotation Yrotation Xrotation
									End Site
									{
										OFFSET -0.60147 -0.00000 0.60147
									}
								}
							}
						}
					}
				}
			}
		}
	}
}
MOTION
Frames: 8
Frame Time: .0083333
-0.912 17.127 -2.0704 0 0 0 0 0 0 -21 0 0 0 0 0 0 0 0 0 0 0 0 0 0 21 0 0 0 0 0 0 0 0 0 0 0 0 0 0 0 0 0 0 0 0 0 0 -16 0 0 21 0 0 11 0 0 0 -8 0 0 0 0 0 0 0 0 0 0 0 0 0 0 0 0 0 0 0 0 8 0 0 0 0 0 0 0 0 0 0 0 0 0 0 0 0 0
-0.9120 17.1270 -2.0704 0.7611 -1.5524 6.5624 0.0000 0.0000 0.0000 -19.1029 -2.6507 -19.9864 5.5142 13.9404 42.9994 1.8803 -4.3284 -24.9191 1.1272 -6.7435 -18.9578 0.0000 0.0000 0.0000 15.4401 8.3692 -19.7029 -6.3912 -14.7970 46.5322 -2.3257 6.3975 -27.5689 -0.0405 1.2986 -3.5708 -2.9888 -0.7029 5.5546 1.6960 -1.0778 -0.3854 3.5253 -0.4665 -3.4274 -11.1022 -3.5863 -22.7106 6.7152 -2.9101 22.1240 3.8458 -1.4201 11.2107 0.0000 -0.0000 0.0000 -89.6447 0.3399 21.5554 16.5751 -26.2942 -3.8972 -0.0000 -0.0000 3.9068 14.0194 20.4908 4.9952 -7.1250 0.0000 -0.0000 -14.4550 50.4813 -1.9887 0.0000 -0.0000 0.0000 87.2848 -0.4921 23.6339 -18.2727 28.5050 -4.6787 0.0000 0.0000 19.5984 -20.1344 -0.3892 0.1427 7.1250 -0.0000 -0.0000 5.0869 -30.3734 1.8230
-0.9178 17.0648 -2.0953 0.6552 -1.3969 6.5376 0.0000 0.0000 0.0000 -18.7858 -2.5247 -21.1235 5.9454 14.3753 44.7624 1.9146 -4.9250 -25.0681 1.1624 -6.8443 -19.2550 0.0000 0.0000 0.0000 15.5076 8.4911 -20.3978 -6.7318 -15.1018 47.8526 -2.3732 6.4345 -27.8584 -0.0535 1.4926 -4.1054 -2.8779 -0.7069 5.9245 1.6873 -1.0842 -0.2101 3.4593 -0.4737 -3.4554 -11.0832 -3.6153 -22.9466 6.8139 -2.9406 21.6901 3.8642 -1.4080 11.0965 -0.0000 -0.0000 0.0000 -89.4419 0.0213 21.4604 16.8826 -26.7028 -4.0345 -0.0000 -0.0000 2.5609 9.7309 26.6876 4.4042 -7.1250 0.0000 -0.0000 -21.8085 55.6401 -5.8968 -0.0000 -0.0000 0.0000 87.3647 -0.1242 23.2671 -18.4078 28.6762 -4.7433 0.0000 0.0000 19.2002 -20.7115 0.3518 -0.1330 7.1250 -0.0000 -0.0000 4.5944 -29.5889 1.7317
-0.9217 17.0001 -2.1133 0.5207 -1.3774 6.4943 0.0000 0.0000 0.0000 -18.4648 -2.2511 -22.1900 6.3724 14.7798 46.4587 1.9521 -5.4648 -25.2548 1.2554 -7.1030 -20.0210 0.0000 0.0000 0.0000 15.5878 8.7478 -20.9811 -7.0667 -15.3878 49.1262 -2.4265 6.6097 -28.1670 -0.0644 1.6376 -4.5052 -2.6913 -0.6758 6.2134 1.6628 -1.0362 -0.0366 3.3278 -0.4558 -3.4452 -10.9697 -3.6345 -23.1174 6.7374 -2.9536 21.3046 3.8052 -1.4044 10.9827 0.0000 0.0000 0.0000 -89.1858 -0.3331 21.2935 17.0294 -26.8965 -4.1006 -0.0000 -0.0000 1.5183 8.6045 28.8523 4.1762 -7.1250 0.0000 -0.0000 -24.4137 57.3905 -7.7168 0.0000 0.0000 0.0000 87.4913 0.2526 22.6876 -18.3888 28.6521 -4.7342 0.0000 0.0000 18.5762 -21.4961 1.1890 -0.4682 7.1250 -0.0000 -0.0000 3.9482 -28.6930 1.5712
-0.9242 16.9350 -2.1303 0.3941 -1.4071 6.2613 0.0000 0.0000 0.0000 -18.1501 -1.9675 -22.9875 6.7933 15.1553 48.0881 1.9774 -5.9276 -25.3741 1.3009 -7.2260 -20.3866 0.0000 0.0000 0.0000 15.6908 9.0068 -21.3702 -7.4146 -15.6713 50.4254 -2.4876 6.7096 -28.5261 -0.0829 1.8567 -5.1098 -2.5221 -0.6665 6.7253 1.6482 -1.0219 0.1369 3.2238 -0.4519 -3.5571 -10.8213 -3.6123 -23.2591 6.5701 -2.9037 20.9977 3.7190 -1.3828 10.8847 -0.0000 -0.0000 0.0000 -88.9300 -0.6228 20.7280 17.1613 -27.0700 -4.1605 -0.0000 -0.0000 1.0391 8.4908 29.2751 4.1753 -7.1250 0.0000 -0.0000 -24.8433 57.7476 -8.0819 -0.0000 -0.0000 0.0000 87.6018 0.6016 21.9550 -18.3439 28.5953 -4.7127 0.0000 0.0000 17.9571 -21.8327 1.8053 -0.7231 7.1250 -0.0000 -0.0000 3.6685 -28.0286 1.5172
-0.9258 16.8709 -2.1454 0.3216 -1.3122 5.9959 0.0000 0.0000 0.0000 -17.8660 -1.8886 -23.6076 7.2079 15.5045 49.6562 1.9908 -6.5244 -25.4096 1.3173 -7.2696 -20.5165 0.0000 0.0000 0.0000 15.7462 9.1255 -21.7341 -7.7763 -15.9522 51.7528 -2.5472 6.6703 -28.8862 -0.1348 2.3663 -6.5192 -2.3829 -0.7247 7.1878 1.6106 -1.0981 0.3735 3.1197 -0.4950 -3.5687 -10.6472 -3.5232 -23.3377 6.4920 -2.7965 20.5334 3.6680 -1.3203 10.7125 0.0000 0.0000 0.0000 -88.6183 -1.1015 19.8780 17.2806 -27.2261 -4.2149 -0.0000 -0.0000 0.7562 7.9942 30.3767 4.0621 -7.1250 0.0000 -0.0000 -26.2074 58.6245 -9.1286 0.0000 0.0000 0.0000 87.7427 1.0046 21.1055 -18.2717 28.5037 -4.6782 0.0000 0.0000 17.2636 -22.0055 2.7213 -1.0992 7.1250 -0.0000 -0.0000 3.5146 -27.0409 1.5353
-0.9306 16.8009 -2.1637 0.2479 -1.1533 5.8916 0.0000 0.0000 0.0000 -17.5714 -1.9001 -24.3044 7.6103 15.8250 51.1465 1.9938 -6.8734 -25.4036 1.4740 -7.6718 -21.7216 0.0000 0.0000 0.0000 15.7750 9.2413 -22.2783 -8.1467 -16.2261 53.0893 -2.5923 6.4026 -29.1807 -0.2546 3.2468 -8.9665 -2.2601 -0.7794 7.5405 1.5945 -1.1674 0.5423 3.0459 -0.5331 -3.5889 -10.6097 -3.4617 -23.3433 6.5172 -2.7127 20.0055 3.6729 -1.2668 10.5114 -0.0000 -0.0000 0.0000 -88.2467 -1.6589 19.0374 17.2622 -27.2022 -4.2065 -0.0000 -0.0000 0.4657 8.4732 30.5665 4.3324 -7.1250 0.0000 -0.0000 -25.8792 58.8996 -9.1774 -0.0000 -0.0000 0.0000 87.8393 1.5064 20.0491 -18.0793 28.2585 -4.5867 0.0000 0.0000 16.5660 -22.4517 3.7561 -1.5506 7.1250 -0.0000 -0.0000 3.1607 -25.9150 1.4636
-0.9412 16.7272 -2.1812 0.0829 -1.0838 5.8706 0.0000 0.0000 0.0000 -17.1341 -1.8459 -25.0873 7.9985 16.1182 52.5574 2.0065 -7.3358 -25.4595 1.6034 -7.9859 -22.6714 0.0000 0.0000 0.0000 15.9023 9.5235 -22.8602 -8.5080 -16.4805 54.3725 -2.6419 6.2971 -29.4837 -0.3417 3.7561 -10.3916 -2.1302 -0.7584 7.8538 1.6107 -1.1325 0.6240 2.9916 -0.5170 -3.6841 -10.6383 -3.4475 -23.3188 6.5900 -2.6885 19.5334 3.6978 -1.2414 10.3342 -0.0000 0.0000 0.0000 -87.7686 -2.2274 18.2273 17.0626 -26.9402 -4.1156 -0.0000 -0.0000 0.0167 9.9131 29.1908 4.8719 -7.1250 0.0000 -0.0000 -23.3476 57.9764 -7.6884 -0.0000 0.0000 0.0000 87.9720 1.9886 18.5244 -17.9156 28.0490 -4.5095 0.0000 0.0000 16.1836 -22.0943 3.7206 -1.5090 7.1250 -0.0000 -0.0000 3.4317 -25.9631 1.5857
